<svg width="265" height="212" viewBox="0 0 265 212" fill="none" xmlns="http://www.w3.org/2000/svg">
<path d="M237.938 185.117H211.608V69.925L132.62 119.293L53.6309 69.925V185.117H27.3013V27.1394H43.099L132.62 83.0898L222.14 27.1394H237.938V185.117ZM237.938 0.809814H27.3013C12.6883 0.809814 0.97168 12.5265 0.97168 27.1394V185.117C0.97168 192.1 3.74568 198.797 8.68344 203.735C13.6212 208.673 20.3182 211.447 27.3013 211.447H237.938C244.921 211.447 251.618 208.673 256.556 203.735C261.494 198.797 264.268 192.1 264.268 185.117V27.1394C264.268 20.1564 261.494 13.4593 256.556 8.52157C251.618 3.58382 244.921 0.809814 237.938 0.809814Z" fill="#864851"/>
</svg>
